<?xml version="1.0" encoding="UTF-8" standalone="no"?>
<!DOCTYPE svg PUBLIC "-//W3C//DTD SVG 1.1//EN"
 "http://www.w3.org/Graphics/SVG/1.1/DTD/svg11.dtd">
<!-- Generated by graphviz version 2.34.0 (20141125.1709)
 -->
<!-- Title: cluster_92e9d6227d5534e7afc27a11179c808e Pages: 1 -->
<svg width="485pt" height="357pt"
 viewBox="0.00 0.00 485.00 357.00" xmlns="http://www.w3.org/2000/svg" xmlns:xlink="http://www.w3.org/1999/xlink">
<g id="graph0" class="graph" transform="scale(1 1) rotate(0) translate(4 353)">
<title>cluster_92e9d6227d5534e7afc27a11179c808e</title>
<polygon fill="white" stroke="white" points="-4,4 -4,-353 481,-353 481,4 -4,4"/>
<text text-anchor="middle" x="238.5" y="-7" font-family="Times,serif" font-size="10.00">Syntax</text>
<g id="clust2" class="cluster"><title>cluster_f8d3272543f139d44559b655130df7d6</title>
<polygon fill="none" stroke="black" points="8,-27 8,-314 296,-314 296,-27 8,-27"/>
<text text-anchor="middle" x="152" y="-302" font-family="Times,serif" font-size="10.00">Defining Graphs (defining&#45;graphs)</text>
</g>
<g id="clust3" class="cluster"><title>cluster_319e8a8991d1c622e7af891c435dde4c</title>
<polygon fill="none" stroke="black" points="304,-171 304,-341 469,-341 469,-171 304,-171"/>
<text text-anchor="middle" x="386.5" y="-329" font-family="Times,serif" font-size="10.00">Defining Clusters (defining&#45;clusters)</text>
</g>
<g id="clust4" class="cluster"><title>cluster_59995c161e692d7e38c56d8751b89a2f</title>
<polygon fill="none" stroke="black" points="331,-243 331,-314 441,-314 441,-243 331,-243"/>
<text text-anchor="middle" x="386" y="-302" font-family="Times,serif" font-size="10.00">Subcluster</text>
</g>
<!-- First Item -->
<g id="node1" class="node"><title>First Item</title>
<path fill="none" stroke="black" d="M59.25,-215C59.25,-215 28.75,-215 28.75,-215 22.75,-215 16.75,-209 16.75,-203 16.75,-203 16.75,-191 16.75,-191 16.75,-185 22.75,-179 28.75,-179 28.75,-179 59.25,-179 59.25,-179 65.25,-179 71.25,-185 71.25,-191 71.25,-191 71.25,-203 71.25,-203 71.25,-209 65.25,-215 59.25,-215"/>
<text text-anchor="middle" x="44" y="-194.5" font-family="Times,serif" font-size="10.00">First Item</text>
</g>
<!-- Second Item -->
<g id="node2" class="node"><title>Second Item</title>
<path fill="none" stroke="black" d="M71.25,-143C71.25,-143 28.75,-143 28.75,-143 22.75,-143 16.75,-137 16.75,-131 16.75,-131 16.75,-119 16.75,-119 16.75,-113 22.75,-107 28.75,-107 28.75,-107 71.25,-107 71.25,-107 77.25,-107 83.25,-113 83.25,-119 83.25,-119 83.25,-131 83.25,-131 83.25,-137 77.25,-143 71.25,-143"/>
<text text-anchor="middle" x="50" y="-122.5" font-family="Times,serif" font-size="10.00">Second Item</text>
</g>
<!-- First Item&#45;&gt;Second Item -->
<g id="edge1" class="edge"><title>First Item&#45;&gt;Second Item</title>
<path fill="none" stroke="black" d="M45.4831,-178.697C46.1443,-170.983 46.9389,-161.712 47.6761,-153.112"/>
<polygon fill="black" stroke="black" points="51.167,-153.367 48.5339,-143.104 44.1926,-152.769 51.167,-153.367"/>
</g>
<!-- Nesting works as\nexpected -->
<g id="node7" class="node"><title>Nesting works as\nexpected</title>
<path fill="none" stroke="black" d="M176,-143C176,-143 114,-143 114,-143 108,-143 102,-137 102,-131 102,-131 102,-119 102,-119 102,-113 108,-107 114,-107 114,-107 176,-107 176,-107 182,-107 188,-113 188,-119 188,-119 188,-131 188,-131 188,-137 182,-143 176,-143"/>
<text text-anchor="middle" x="145" y="-128" font-family="Times,serif" font-size="10.00">Nesting works as</text>
<text text-anchor="middle" x="145" y="-117" font-family="Times,serif" font-size="10.00">expected</text>
</g>
<!-- First Item&#45;&gt;Nesting works as\nexpected -->
<g id="edge5" class="edge"><title>First Item&#45;&gt;Nesting works as\nexpected</title>
<path fill="none" stroke="black" d="M68.7074,-178.876C81.6686,-169.893 97.7284,-158.763 111.765,-149.034"/>
<polygon fill="black" stroke="black" points="113.972,-151.763 120.198,-143.19 109.985,-146.009 113.972,-151.763"/>
</g>
<!-- Third Item -->
<g id="node6" class="node"><title>Third Item</title>
<path fill="none" stroke="black" d="M67.25,-71C67.25,-71 32.75,-71 32.75,-71 26.75,-71 20.75,-65 20.75,-59 20.75,-59 20.75,-47 20.75,-47 20.75,-41 26.75,-35 32.75,-35 32.75,-35 67.25,-35 67.25,-35 73.25,-35 79.25,-41 79.25,-47 79.25,-47 79.25,-59 79.25,-59 79.25,-65 73.25,-71 67.25,-71"/>
<text text-anchor="middle" x="50" y="-50.5" font-family="Times,serif" font-size="10.00">Third Item</text>
</g>
<!-- Second Item&#45;&gt;Third Item -->
<g id="edge4" class="edge"><title>Second Item&#45;&gt;Third Item</title>
<path fill="none" stroke="black" d="M50,-106.697C50,-98.9827 50,-89.7125 50,-81.1124"/>
<polygon fill="black" stroke="black" points="53.5001,-81.1043 50,-71.1043 46.5001,-81.1044 53.5001,-81.1043"/>
</g>
<!-- Unordered lists to\nrepresent choices -->
<g id="node3" class="node"><title>Unordered lists to\nrepresent choices</title>
<path fill="none" stroke="black" d="M221.25,-287C221.25,-287 156.75,-287 156.75,-287 150.75,-287 144.75,-281 144.75,-275 144.75,-275 144.75,-263 144.75,-263 144.75,-257 150.75,-251 156.75,-251 156.75,-251 221.25,-251 221.25,-251 227.25,-251 233.25,-257 233.25,-263 233.25,-263 233.25,-275 233.25,-275 233.25,-281 227.25,-287 221.25,-287"/>
<text text-anchor="middle" x="189" y="-272" font-family="Times,serif" font-size="10.00">Unordered lists to</text>
<text text-anchor="middle" x="189" y="-261" font-family="Times,serif" font-size="10.00">represent choices</text>
</g>
<!-- Choice 2 -->
<g id="node4" class="node"><title>Choice 2</title>
<path fill="none" stroke="black" d="M132,-215C132,-215 102,-215 102,-215 96,-215 90,-209 90,-203 90,-203 90,-191 90,-191 90,-185 96,-179 102,-179 102,-179 132,-179 132,-179 138,-179 144,-185 144,-191 144,-191 144,-203 144,-203 144,-209 138,-215 132,-215"/>
<text text-anchor="middle" x="117" y="-194.5" font-family="Times,serif" font-size="10.00">Choice 2</text>
</g>
<!-- Unordered lists to\nrepresent choices&#45;&gt;Choice 2 -->
<g id="edge2" class="edge"><title>Unordered lists to\nrepresent choices&#45;&gt;Choice 2</title>
<path fill="none" stroke="black" d="M171.202,-250.697C162.396,-242.135 151.618,-231.656 141.999,-222.304"/>
<polygon fill="black" stroke="black" points="144.203,-219.566 134.593,-215.104 139.323,-224.585 144.203,-219.566"/>
</g>
<!-- Choice 1 -->
<g id="node5" class="node"><title>Choice 1</title>
<path fill="none" stroke="black" d="M204,-215C204,-215 174,-215 174,-215 168,-215 162,-209 162,-203 162,-203 162,-191 162,-191 162,-185 168,-179 174,-179 174,-179 204,-179 204,-179 210,-179 216,-185 216,-191 216,-191 216,-203 216,-203 216,-209 210,-215 204,-215"/>
<text text-anchor="middle" x="189" y="-194.5" font-family="Times,serif" font-size="10.00">Choice 1</text>
</g>
<!-- Unordered lists to\nrepresent choices&#45;&gt;Choice 1 -->
<g id="edge3" class="edge"><title>Unordered lists to\nrepresent choices&#45;&gt;Choice 1</title>
<path fill="none" stroke="black" d="M189,-250.697C189,-242.983 189,-233.712 189,-225.112"/>
<polygon fill="black" stroke="black" points="192.5,-225.104 189,-215.104 185.5,-225.104 192.5,-225.104"/>
</g>
<!-- Choice 3 -->
<g id="node8" class="node"><title>Choice 3</title>
<path fill="none" stroke="black" d="M276,-215C276,-215 246,-215 246,-215 240,-215 234,-209 234,-203 234,-203 234,-191 234,-191 234,-185 240,-179 246,-179 246,-179 276,-179 276,-179 282,-179 288,-185 288,-191 288,-191 288,-203 288,-203 288,-209 282,-215 276,-215"/>
<text text-anchor="middle" x="261" y="-194.5" font-family="Times,serif" font-size="10.00">Choice 3</text>
</g>
<!-- Unordered lists to\nrepresent choices&#45;&gt;Choice 3 -->
<g id="edge6" class="edge"><title>Unordered lists to\nrepresent choices&#45;&gt;Choice 3</title>
<path fill="none" stroke="black" d="M206.798,-250.697C215.604,-242.135 226.382,-231.656 236.001,-222.304"/>
<polygon fill="black" stroke="black" points="238.677,-224.585 243.407,-215.104 233.797,-219.566 238.677,-224.585"/>
</g>
<!-- … kinda … -->
<g id="node11" class="node"><title>… kinda …</title>
<path fill="none" stroke="black" d="M165,-71C165,-71 125,-71 125,-71 119,-71 113,-65 113,-59 113,-59 113,-47 113,-47 113,-41 119,-35 125,-35 125,-35 165,-35 165,-35 171,-35 177,-41 177,-47 177,-47 177,-59 177,-59 177,-65 171,-71 165,-71"/>
<text text-anchor="middle" x="145" y="-50.5" font-family="Times,serif" font-size="10.00">… kinda …</text>
</g>
<!-- Nesting works as\nexpected&#45;&gt;… kinda … -->
<g id="edge8" class="edge"><title>Nesting works as\nexpected&#45;&gt;… kinda …</title>
<path fill="none" stroke="black" d="M145,-106.697C145,-98.9827 145,-89.7125 145,-81.1124"/>
<polygon fill="black" stroke="black" points="148.5,-81.1043 145,-71.1043 141.5,-81.1044 148.5,-81.1043"/>
</g>
<!-- While this belongs\nto `Subcluster` -->
<g id="node9" class="node"><title>While this belongs\nto `Subcluster`</title>
<path fill="none" stroke="black" d="M421,-287C421,-287 351,-287 351,-287 345,-287 339,-281 339,-275 339,-275 339,-263 339,-263 339,-257 345,-251 351,-251 351,-251 421,-251 421,-251 427,-251 433,-257 433,-263 433,-263 433,-275 433,-275 433,-281 427,-287 421,-287"/>
<text text-anchor="middle" x="386" y="-272" font-family="Times,serif" font-size="10.00">While this belongs</text>
<text text-anchor="middle" x="386" y="-261" font-family="Times,serif" font-size="10.00">to `Subcluster`</text>
</g>
<!-- This belongs to\n`defining&#45;clusters` -->
<g id="node10" class="node"><title>This belongs to\n`defining&#45;clusters`</title>
<path fill="none" stroke="black" d="M419.25,-215C419.25,-215 352.75,-215 352.75,-215 346.75,-215 340.75,-209 340.75,-203 340.75,-203 340.75,-191 340.75,-191 340.75,-185 346.75,-179 352.75,-179 352.75,-179 419.25,-179 419.25,-179 425.25,-179 431.25,-185 431.25,-191 431.25,-191 431.25,-203 431.25,-203 431.25,-209 425.25,-215 419.25,-215"/>
<text text-anchor="middle" x="386" y="-200" font-family="Times,serif" font-size="10.00">This belongs to</text>
<text text-anchor="middle" x="386" y="-189" font-family="Times,serif" font-size="10.00">`defining&#45;clusters`</text>
</g>
<!-- While this belongs\nto `Subcluster`&#45;&gt;This belongs to\n`defining&#45;clusters` -->
<g id="edge7" class="edge"><title>While this belongs\nto `Subcluster`&#45;&gt;This belongs to\n`defining&#45;clusters`</title>
<path fill="none" stroke="black" d="M386,-250.697C386,-242.983 386,-233.712 386,-225.112"/>
<polygon fill="black" stroke="black" points="389.5,-225.104 386,-215.104 382.5,-225.104 389.5,-225.104"/>
</g>
<!-- Ordered lists to\nrepresent sequences -->
<g id="node12" class="node"><title>Ordered lists to\nrepresent sequences</title>
<path fill="none" stroke="black" d="M101.25,-287C101.25,-287 28.75,-287 28.75,-287 22.75,-287 16.75,-281 16.75,-275 16.75,-275 16.75,-263 16.75,-263 16.75,-257 22.75,-251 28.75,-251 28.75,-251 101.25,-251 101.25,-251 107.25,-251 113.25,-257 113.25,-263 113.25,-263 113.25,-275 113.25,-275 113.25,-281 107.25,-287 101.25,-287"/>
<text text-anchor="middle" x="65" y="-272" font-family="Times,serif" font-size="10.00">Ordered lists to</text>
<text text-anchor="middle" x="65" y="-261" font-family="Times,serif" font-size="10.00">represent sequences</text>
</g>
<!-- Ordered lists to\nrepresent sequences&#45;&gt;First Item -->
<g id="edge9" class="edge"><title>Ordered lists to\nrepresent sequences&#45;&gt;First Item</title>
<path fill="none" stroke="black" d="M59.809,-250.697C57.4694,-242.898 54.6526,-233.509 52.0487,-224.829"/>
<polygon fill="black" stroke="black" points="55.3572,-223.677 49.1313,-215.104 48.6525,-225.688 55.3572,-223.677"/>
</g>
</g>
</svg>
