<?xml version="1.0" encoding="UTF-8" standalone="no"?>
<!DOCTYPE svg PUBLIC "-//W3C//DTD SVG 1.1//EN"
 "http://www.w3.org/Graphics/SVG/1.1/DTD/svg11.dtd">
<!-- Generated by graphviz version 2.34.0 (20141125.1709)
 -->
<!-- Title: cluster_319e8a8991d1c622e7af891c435dde4c Pages: 1 -->
<svg width="173pt" height="170pt"
 viewBox="0.00 0.00 173.00 170.00" xmlns="http://www.w3.org/2000/svg" xmlns:xlink="http://www.w3.org/1999/xlink">
<g id="graph0" class="graph" transform="scale(1 1) rotate(0) translate(4 166)">
<title>cluster_319e8a8991d1c622e7af891c435dde4c</title>
<polygon fill="white" stroke="white" points="-4,4 -4,-166 169,-166 169,4 -4,4"/>
<text text-anchor="middle" x="82.5" y="-7" font-family="Times,serif" font-size="10.00">Defining Clusters (defining&#45;clusters)</text>
<g id="clust1" class="cluster"><title>cluster_59995c161e692d7e38c56d8751b89a2f</title>
<polygon fill="none" stroke="black" points="27.5,-83 27.5,-154 137.5,-154 137.5,-83 27.5,-83"/>
<text text-anchor="middle" x="82.5" y="-142" font-family="Times,serif" font-size="10.00">Subcluster</text>
</g>
<!-- This belongs to\n`defining&#45;clusters` -->
<g id="node1" class="node"><title>This belongs to\n`defining&#45;clusters`</title>
<path fill="none" stroke="black" d="M115.75,-55C115.75,-55 49.25,-55 49.25,-55 43.25,-55 37.25,-49 37.25,-43 37.25,-43 37.25,-31 37.25,-31 37.25,-25 43.25,-19 49.25,-19 49.25,-19 115.75,-19 115.75,-19 121.75,-19 127.75,-25 127.75,-31 127.75,-31 127.75,-43 127.75,-43 127.75,-49 121.75,-55 115.75,-55"/>
<text text-anchor="middle" x="82.5" y="-40" font-family="Times,serif" font-size="10.00">This belongs to</text>
<text text-anchor="middle" x="82.5" y="-29" font-family="Times,serif" font-size="10.00">`defining&#45;clusters`</text>
</g>
<!-- While this belongs\nto `Subcluster` -->
<g id="node2" class="node"><title>While this belongs\nto `Subcluster`</title>
<path fill="none" stroke="black" d="M117.5,-127C117.5,-127 47.5,-127 47.5,-127 41.5,-127 35.5,-121 35.5,-115 35.5,-115 35.5,-103 35.5,-103 35.5,-97 41.5,-91 47.5,-91 47.5,-91 117.5,-91 117.5,-91 123.5,-91 129.5,-97 129.5,-103 129.5,-103 129.5,-115 129.5,-115 129.5,-121 123.5,-127 117.5,-127"/>
<text text-anchor="middle" x="82.5" y="-112" font-family="Times,serif" font-size="10.00">While this belongs</text>
<text text-anchor="middle" x="82.5" y="-101" font-family="Times,serif" font-size="10.00">to `Subcluster`</text>
</g>
<!-- While this belongs\nto `Subcluster`&#45;&gt;This belongs to\n`defining&#45;clusters` -->
<g id="edge1" class="edge"><title>While this belongs\nto `Subcluster`&#45;&gt;This belongs to\n`defining&#45;clusters`</title>
<path fill="none" stroke="black" d="M82.5,-90.6966C82.5,-82.9827 82.5,-73.7125 82.5,-65.1124"/>
<polygon fill="black" stroke="black" points="86.0001,-65.1043 82.5,-55.1043 79.0001,-65.1044 86.0001,-65.1043"/>
</g>
</g>
</svg>
