<?xml version="1.0" encoding="UTF-8" standalone="no"?>
<!DOCTYPE svg PUBLIC "-//W3C//DTD SVG 1.1//EN"
 "http://www.w3.org/Graphics/SVG/1.1/DTD/svg11.dtd">
<!-- Generated by graphviz version 2.34.0 (20141125.1709)
 -->
<!-- Title: cluster_f8d3272543f139d44559b655130df7d6 Pages: 1 -->
<svg width="332pt" height="279pt"
 viewBox="0.00 0.00 332.00 279.00" xmlns="http://www.w3.org/2000/svg" xmlns:xlink="http://www.w3.org/1999/xlink">
<g id="graph0" class="graph" transform="scale(1 1) rotate(0) translate(4 275)">
<title>cluster_f8d3272543f139d44559b655130df7d6</title>
<polygon fill="white" stroke="white" points="-4,4 -4,-275 328,-275 328,4 -4,4"/>
<text text-anchor="middle" x="162" y="-7" font-family="Times,serif" font-size="10.00">Defining Graphs (defining&#45;graphs)</text>
<!-- Unordered lists to\nrepresent choices -->
<g id="node1" class="node"><title>Unordered lists to\nrepresent choices</title>
<path fill="none" stroke="black" d="M131.25,-271C131.25,-271 66.75,-271 66.75,-271 60.75,-271 54.75,-265 54.75,-259 54.75,-259 54.75,-247 54.75,-247 54.75,-241 60.75,-235 66.75,-235 66.75,-235 131.25,-235 131.25,-235 137.25,-235 143.25,-241 143.25,-247 143.25,-247 143.25,-259 143.25,-259 143.25,-265 137.25,-271 131.25,-271"/>
<text text-anchor="middle" x="99" y="-256" font-family="Times,serif" font-size="10.00">Unordered lists to</text>
<text text-anchor="middle" x="99" y="-245" font-family="Times,serif" font-size="10.00">represent choices</text>
</g>
<!-- Choice 1 -->
<g id="node2" class="node"><title>Choice 1</title>
<path fill="none" stroke="black" d="M42,-199C42,-199 12,-199 12,-199 6,-199 0,-193 0,-187 0,-187 0,-175 0,-175 0,-169 6,-163 12,-163 12,-163 42,-163 42,-163 48,-163 54,-169 54,-175 54,-175 54,-187 54,-187 54,-193 48,-199 42,-199"/>
<text text-anchor="middle" x="27" y="-178.5" font-family="Times,serif" font-size="10.00">Choice 1</text>
</g>
<!-- Unordered lists to\nrepresent choices&#45;&gt;Choice 1 -->
<g id="edge3" class="edge"><title>Unordered lists to\nrepresent choices&#45;&gt;Choice 1</title>
<path fill="none" stroke="black" d="M81.2022,-234.697C72.396,-226.135 61.6179,-215.656 51.9989,-206.304"/>
<polygon fill="black" stroke="black" points="54.2028,-203.566 44.593,-199.104 49.3232,-208.585 54.2028,-203.566"/>
</g>
<!-- Choice 2 -->
<g id="node5" class="node"><title>Choice 2</title>
<path fill="none" stroke="black" d="M114,-199C114,-199 84,-199 84,-199 78,-199 72,-193 72,-187 72,-187 72,-175 72,-175 72,-169 78,-163 84,-163 84,-163 114,-163 114,-163 120,-163 126,-169 126,-175 126,-175 126,-187 126,-187 126,-193 120,-199 114,-199"/>
<text text-anchor="middle" x="99" y="-178.5" font-family="Times,serif" font-size="10.00">Choice 2</text>
</g>
<!-- Unordered lists to\nrepresent choices&#45;&gt;Choice 2 -->
<g id="edge2" class="edge"><title>Unordered lists to\nrepresent choices&#45;&gt;Choice 2</title>
<path fill="none" stroke="black" d="M99,-234.697C99,-226.983 99,-217.712 99,-209.112"/>
<polygon fill="black" stroke="black" points="102.5,-209.104 99,-199.104 95.5001,-209.104 102.5,-209.104"/>
</g>
<!-- Choice 3 -->
<g id="node7" class="node"><title>Choice 3</title>
<path fill="none" stroke="black" d="M186,-199C186,-199 156,-199 156,-199 150,-199 144,-193 144,-187 144,-187 144,-175 144,-175 144,-169 150,-163 156,-163 156,-163 186,-163 186,-163 192,-163 198,-169 198,-175 198,-175 198,-187 198,-187 198,-193 192,-199 186,-199"/>
<text text-anchor="middle" x="171" y="-178.5" font-family="Times,serif" font-size="10.00">Choice 3</text>
</g>
<!-- Unordered lists to\nrepresent choices&#45;&gt;Choice 3 -->
<g id="edge6" class="edge"><title>Unordered lists to\nrepresent choices&#45;&gt;Choice 3</title>
<path fill="none" stroke="black" d="M116.798,-234.697C125.604,-226.135 136.382,-215.656 146.001,-206.304"/>
<polygon fill="black" stroke="black" points="148.677,-208.585 153.407,-199.104 143.797,-203.566 148.677,-208.585"/>
</g>
<!-- First Item -->
<g id="node3" class="node"><title>First Item</title>
<path fill="none" stroke="black" d="M259.25,-199C259.25,-199 228.75,-199 228.75,-199 222.75,-199 216.75,-193 216.75,-187 216.75,-187 216.75,-175 216.75,-175 216.75,-169 222.75,-163 228.75,-163 228.75,-163 259.25,-163 259.25,-163 265.25,-163 271.25,-169 271.25,-175 271.25,-175 271.25,-187 271.25,-187 271.25,-193 265.25,-199 259.25,-199"/>
<text text-anchor="middle" x="244" y="-178.5" font-family="Times,serif" font-size="10.00">First Item</text>
</g>
<!-- Nesting works as\nexpected -->
<g id="node4" class="node"><title>Nesting works as\nexpected</title>
<path fill="none" stroke="black" d="M227,-127C227,-127 165,-127 165,-127 159,-127 153,-121 153,-115 153,-115 153,-103 153,-103 153,-97 159,-91 165,-91 165,-91 227,-91 227,-91 233,-91 239,-97 239,-103 239,-103 239,-115 239,-115 239,-121 233,-127 227,-127"/>
<text text-anchor="middle" x="196" y="-112" font-family="Times,serif" font-size="10.00">Nesting works as</text>
<text text-anchor="middle" x="196" y="-101" font-family="Times,serif" font-size="10.00">expected</text>
</g>
<!-- First Item&#45;&gt;Nesting works as\nexpected -->
<g id="edge5" class="edge"><title>First Item&#45;&gt;Nesting works as\nexpected</title>
<path fill="none" stroke="black" d="M232.135,-162.697C226.497,-154.474 219.646,-144.483 213.431,-135.421"/>
<polygon fill="black" stroke="black" points="216.271,-133.372 207.729,-127.104 210.497,-137.331 216.271,-133.372"/>
</g>
<!-- Second Item -->
<g id="node6" class="node"><title>Second Item</title>
<path fill="none" stroke="black" d="M312.25,-127C312.25,-127 269.75,-127 269.75,-127 263.75,-127 257.75,-121 257.75,-115 257.75,-115 257.75,-103 257.75,-103 257.75,-97 263.75,-91 269.75,-91 269.75,-91 312.25,-91 312.25,-91 318.25,-91 324.25,-97 324.25,-103 324.25,-103 324.25,-115 324.25,-115 324.25,-121 318.25,-127 312.25,-127"/>
<text text-anchor="middle" x="291" y="-106.5" font-family="Times,serif" font-size="10.00">Second Item</text>
</g>
<!-- First Item&#45;&gt;Second Item -->
<g id="edge1" class="edge"><title>First Item&#45;&gt;Second Item</title>
<path fill="none" stroke="black" d="M255.618,-162.697C261.139,-154.474 267.847,-144.483 273.932,-135.421"/>
<polygon fill="black" stroke="black" points="276.847,-137.358 279.516,-127.104 271.035,-133.456 276.847,-137.358"/>
</g>
<!-- … kinda … -->
<g id="node9" class="node"><title>… kinda …</title>
<path fill="none" stroke="black" d="M216,-55C216,-55 176,-55 176,-55 170,-55 164,-49 164,-43 164,-43 164,-31 164,-31 164,-25 170,-19 176,-19 176,-19 216,-19 216,-19 222,-19 228,-25 228,-31 228,-31 228,-43 228,-43 228,-49 222,-55 216,-55"/>
<text text-anchor="middle" x="196" y="-34.5" font-family="Times,serif" font-size="10.00">… kinda …</text>
</g>
<!-- Nesting works as\nexpected&#45;&gt;… kinda … -->
<g id="edge7" class="edge"><title>Nesting works as\nexpected&#45;&gt;… kinda …</title>
<path fill="none" stroke="black" d="M196,-90.6966C196,-82.9827 196,-73.7125 196,-65.1124"/>
<polygon fill="black" stroke="black" points="199.5,-65.1043 196,-55.1043 192.5,-65.1044 199.5,-65.1043"/>
</g>
<!-- Third Item -->
<g id="node8" class="node"><title>Third Item</title>
<path fill="none" stroke="black" d="M308.25,-55C308.25,-55 273.75,-55 273.75,-55 267.75,-55 261.75,-49 261.75,-43 261.75,-43 261.75,-31 261.75,-31 261.75,-25 267.75,-19 273.75,-19 273.75,-19 308.25,-19 308.25,-19 314.25,-19 320.25,-25 320.25,-31 320.25,-31 320.25,-43 320.25,-43 320.25,-49 314.25,-55 308.25,-55"/>
<text text-anchor="middle" x="291" y="-34.5" font-family="Times,serif" font-size="10.00">Third Item</text>
</g>
<!-- Second Item&#45;&gt;Third Item -->
<g id="edge4" class="edge"><title>Second Item&#45;&gt;Third Item</title>
<path fill="none" stroke="black" d="M291,-90.6966C291,-82.9827 291,-73.7125 291,-65.1124"/>
<polygon fill="black" stroke="black" points="294.5,-65.1043 291,-55.1043 287.5,-65.1044 294.5,-65.1043"/>
</g>
<!-- Ordered lists to\nrepresent sequences -->
<g id="node10" class="node"><title>Ordered lists to\nrepresent sequences</title>
<path fill="none" stroke="black" d="M280.25,-271C280.25,-271 207.75,-271 207.75,-271 201.75,-271 195.75,-265 195.75,-259 195.75,-259 195.75,-247 195.75,-247 195.75,-241 201.75,-235 207.75,-235 207.75,-235 280.25,-235 280.25,-235 286.25,-235 292.25,-241 292.25,-247 292.25,-247 292.25,-259 292.25,-259 292.25,-265 286.25,-271 280.25,-271"/>
<text text-anchor="middle" x="244" y="-256" font-family="Times,serif" font-size="10.00">Ordered lists to</text>
<text text-anchor="middle" x="244" y="-245" font-family="Times,serif" font-size="10.00">represent sequences</text>
</g>
<!-- Ordered lists to\nrepresent sequences&#45;&gt;First Item -->
<g id="edge8" class="edge"><title>Ordered lists to\nrepresent sequences&#45;&gt;First Item</title>
<path fill="none" stroke="black" d="M244,-234.697C244,-226.983 244,-217.712 244,-209.112"/>
<polygon fill="black" stroke="black" points="247.5,-209.104 244,-199.104 240.5,-209.104 247.5,-209.104"/>
</g>
</g>
</svg>
